<?xml version="1.0" encoding="utf-8"?>
<!-- Generator: Adobe Illustrator 19.0.0, SVG Export Plug-In . SVG Version: 6.00 Build 0)  -->
<svg version="1.1" id="Layer_1" xmlns="http://www.w3.org/2000/svg" xmlns:xlink="http://www.w3.org/1999/xlink" x="0px" y="0px"
	 viewBox="-548 378 181.2 46" style="enable-background:new -548 378 181.2 46;" xml:space="preserve">
<style type="text/css">
	.st0{fill:#111111;}
</style>
<g id="XMLID_1_">
	<path id="XMLID_3_" class="st0" d="M-545.6,411.4c5.7,1.1,11.5-7.7,11.2-8.9c-0.1-0.6-5.7,1.7-8.1,1.7c-0.4,0-2.1-3.3-2.1-3.7
		c0-1.4,8.5-8.6,15.9-8.6c3.5,0,0.8,5.6-0.2,5.6c-6.2,0-12,4.5-11.3,4.5c1,0,10.8-3.6,10.8,1.4c0,2.5-5.9,10.5-13.6,10.5
		c-2.7,0-5-1.4-5-3.2c0-1.9,2.4-3.7,3.8-3.7c0.4,0,1.1,2.1,1.1,2.4c0,0.1,0,0.1-0.1,0.1C-543.8,409.6-546.7,411.2-545.6,411.4z"/>
	<path id="XMLID_5_" class="st0" d="M-516.9,409.8c0.3,0,7.3-8,8.7-9.6c0.4-0.5,2,1.3,1.1,2.4c-0.8,1-8.6,10.3-10.6,10.3
		c-0.6,0-2.6-2.7-2.6-3.7c0-0.2,0.1-0.7,0.4-1.3c-2.3,1.9-5.6,4.1-7.3,4.1c-1,0-2.6-1-2.6-3.3c0-9,10.7-16.1,12.8-16.1
		c2.4,0,2.7,2.5,2.3,5.3c0.6-0.9,1.2-1.4,1.5-1.4c1.3,0,3.3,2.1,3.3,2.7C-510,400.2-516.9,408.7-516.9,409.8z M-519,403.5
		c1-1.8,2.8-5.3,2-5.3c-2.4,0-9.5,10.4-8.3,10.4C-523.8,408.6-520.8,405.6-519,403.5z"/>
	<path id="XMLID_8_" class="st0" d="M-476.2,402.5c-1.3,1.4-10.8,13.1-12.3,13.1c-0.9,0-2.6-1.1-2.6-3.4c0-7.4,6.1-15.6,5.6-15.6
		s-11.6,9.5-11.6,11.9c0,0.2-0.2,0.6-1,0.6c-0.7,0-1.5-1.1-1.5-3.5c0-2.3,3.6-7,5.3-10.2c-0.7,0-13.7,11.8-13.7,13.7
		c0,0.2-0.2,0.6-1,0.6s-1.5-1.1-1.5-3.5c0-4.3,6.5-14.7,8.9-14.7c1.7,0,2.9,0.5,2.9,1.3c0,0.8-3.8,4-3.8,5.4c0,0.1,0.1,0.5,0.3,0.3
		c0.1-0.1,11-10,11.7-10c1.4,0,3.2,2.5,3.2,3.7c0,0.5-4.3,4.1-4.3,5.5c0,0.1,0,0.2,0.1,0.2c0.7,0,11.5-9.1,12.1-9.1
		c1.4,0,3.2,2.5,3.2,3.7c0,2.2-11.8,14.1-11.8,19.5c0,1.3,9.5-11,10.5-12C-476.6,399.5-475.4,401.7-476.2,402.5z"/>
	<path id="XMLID_10_" class="st0" d="M-458,402.6c-0.7,0.9-10.1,12.1-12.4,12.1c-0.5,0-2.9-1.1-2.9-3.4c0-0.7,1-1.9,0.6-1.5
		c-3.1,3.5-5.7,4.9-6.9,4.9c-2.9,0-3.3-2.1-3.3-3.5c0-5.5,9.6-16.7,10.2-16.7c1.4,0,3.4,1.8,3.4,2.9c0,0.8-11,11.3-11,14.6
		c0,0.3,0.1,0.6,0.6,0.6c1.4,0,7.1-5.3,10.3-10.1c3-4.5,6.6-8.1,7-8.1c1.4,0,2.4,1.8,2.4,3c0,1.4-10.3,11-10.3,14.4
		c0,0.5,10.4-10.8,11.3-11.8C-458.7,399.8-457.1,401.5-458,402.6z"/>
	<path id="XMLID_12_" class="st0" d="M-442.5,402.6c-0.6,0.8-12.2,11.9-15.8,11.9c-2.4,0-3.9-2.9-3.9-6.3c0-8.3,10.3-15.9,12.8-15.9
		c2.2,0,3.2,2.3,3.2,3.2c-0.4,0-0.9,0.1-1.3,0.2c1.2,0.5,2,1.4,2,1.6c0,3.4-4.3,7.4-11.5,7.7c-1.3,2.3-2.4,7.1-1.2,7.1
		c2.9,0,12-9.2,14.7-11.9C-443.2,399.8-441.7,401.5-442.5,402.6z M-455.4,402.5c4.6-0.7,5.5-3.6,5.6-5.6
		C-451.7,398.2-453.8,400.4-455.4,402.5z"/>
	<path id="XMLID_15_" class="st0" d="M-427.9,400.1c0.4-0.4,1.9,1.3,1.1,2.4c-0.6,0.7-16.9,21.6-20,21.6c-1.7,0-3.7-0.8-3.7-4.1l0,0
		v-0.2c0-17,21.7-41.8,24.1-41.8c1.7,0,2.5,2.8,2.5,3.6c0,0.8-23,25.9-23,39.3c0,0.2,0.2,0.3,0.2,0.3
		C-445,421.3-429.8,402-427.9,400.1z"/>
	<path id="XMLID_17_" class="st0" d="M-429.1,411.4c5.7,1.1,11.5-7.7,11.2-8.9c-0.1-0.6-5.7,1.7-8.1,1.7c-0.4,0-2.1-3.3-2.1-3.7
		c0-1.4,8.5-8.6,15.9-8.6c3.5,0,0.8,5.6-0.2,5.6c-6.2,0-12,4.5-11.3,4.5c1,0,10.8-3.6,10.8,1.4c0,2.5-5.9,10.5-13.6,10.5
		c-2.7,0-5-1.4-5-3.2c0-1.9,2.4-3.6,3.8-3.6c0.4,0,1.1,2.1,1.1,2.4c0,0.1,0,0.1-0.1,0.1C-427.3,409.6-430.1,411.2-429.1,411.4z"/>
	<path id="XMLID_19_" class="st0" d="M-391.8,402.6c-1.7,2-5.2,5.3-7.2,5.3c-0.8,0-1.2-0.2-1.7-0.7c-2.1,2.5-3.3,3.6-6,4.2
		c-2.4,0.5-5.5-1.1-5.5-3.6c0-8.3,10.3-15.9,12.8-15.9c1.1,0,1.8,0.5,2.4,1.2c0.2-0.4,0.5-0.6,0.7-0.6c1.2,0,2.4,2.4,2.4,4.2
		c0,2.2-5.7,8.5-5.6,9.4c0.1,1.1,4.8-3.8,6.8-6C-392.4,399.8-390.9,401.6-391.8,402.6z M-402.5,404.6c0-0.3,0-0.7,0-1
		c0-1.7,1.5-4.7,3.3-7.4c-5.1,3.2-12.3,13.7-9.5,13.7C-407.5,410-404.4,406.9-402.5,404.6z"/>
	<path id="XMLID_22_" class="st0" d="M-382.6,392.4c0,0.5-3.9,4.1-3.9,5.4c0,0.1,0.1,0.5,0.3,0.3c0.1-0.1,11-10,11.7-10
		c1.4,0,3.2,2.5,3.2,3.7c0,2.2-11.4,13.4-11.4,20.5c0,1.3,9.5-11.1,10.5-12c0.6-0.6,1.8,1.4,1.1,2.4c-1,1.2-10.2,13.1-12.3,13.1
		c-0.8,0-2.6-1-2.6-3.3c0-7.4,5.8-16.6,5.3-16.6s-11.2,10.4-11.2,12.9c0,0.2-0.2,0.6-1,0.6s-1.5-1.1-1.5-3.5
		c0-4.3,6.7-14.7,9.1-14.7C-383.8,391-382.6,391.5-382.6,392.4z"/>
	<path id="XMLID_24_" class="st0" d="M-372.6,412.1c0-1.8,1.2-3,2.9-3s2.8,1.2,2.8,3c0,1.7-1.1,3-2.9,3
		C-371.4,415.2-372.6,413.9-372.6,412.1z"/>
</g>
</svg>
